# Blender v2.77 (sub 0) OBJ File: 'Only_Spider_with_Animations_Export.blend'
# www.blender.org
mtllib Only_Spider_with_Animations_Export.mtl
o Spider_Eyes_Spider.006
v -2.600941 51.171219 -24.912411
v -2.573352 51.707123 -24.662674
v -7.352526 51.172325 -23.203266
v -7.180671 51.613541 -22.919323
v -1.364128 51.649536 -24.689175
v -1.357546 50.972015 -25.060637
v -8.234138 51.151585 -22.459980
v -8.017580 51.734196 -22.030704
v -3.553492 50.936325 -24.269939
v -3.542114 51.539368 -23.886543
v -6.045020 51.428963 -22.998425
v -6.222763 50.855488 -23.385609
v -7.317922 50.725063 -23.105595
v -2.462789 50.596104 -24.846737
v -6.923621 51.881145 -22.289139
v -2.457993 51.876671 -24.091881
v 2.600971 51.171223 -24.912411
v 2.573382 51.707123 -24.662674
v 7.352553 51.172325 -23.203255
v 7.180698 51.613541 -22.919308
v 1.364157 51.649544 -24.689175
v 1.357575 50.972019 -25.060637
v 8.234165 51.151585 -22.459972
v 8.017608 51.734196 -22.030693
v 3.553522 50.936333 -24.269939
v 3.542142 51.539375 -23.886543
v 6.045048 51.428963 -22.998425
v 6.222791 50.855488 -23.385597
v 7.317949 50.725067 -23.105585
v 2.462818 50.596104 -24.846737
v 6.923649 51.881149 -22.289131
v 2.458021 51.876671 -24.091881
v -2.593285 51.463123 -24.810501
v -7.271575 51.398087 -23.068474
v -1.269489 51.335953 -24.911381
v -8.198269 51.449184 -22.224648
v -3.633081 51.250595 -24.049030
v -6.070585 51.125374 -23.234026
v -1.902924 51.131824 -25.089890
v -1.890622 51.702431 -24.824501
v -7.892111 51.260525 -22.856796
v -7.703569 51.737400 -22.536961
v -3.195966 51.655479 -24.313438
v -3.226247 51.102085 -24.611370
v -6.583086 51.473698 -23.099304
v -6.750904 50.999725 -23.409496
v -5.536713 51.431770 -22.757122
v -5.731363 50.725422 -23.246647
v -3.750027 51.391029 -23.420822
v -3.731708 50.722256 -23.908318
v -8.227145 51.667458 -21.462500
v -8.477386 50.944077 -22.037994
v -0.915751 51.572536 -24.405277
v -0.888487 50.751991 -24.928019
v -7.986813 50.893005 -22.749401
v -7.381863 50.945049 -23.242657
v -2.567162 50.869514 -24.935467
v -1.723559 50.683475 -25.063555
v -7.068468 51.785587 -22.683609
v -7.617540 51.910286 -22.008694
v -1.730588 51.850525 -24.410511
v -2.531477 51.859535 -24.434578
v -3.182962 51.761703 -23.871239
v -3.198384 50.687759 -24.539200
v -6.604296 50.696365 -23.370388
v -6.283543 51.702225 -22.682306
v -2.368703 51.826164 -23.691879
v -6.762453 51.938461 -21.815296
v -2.323119 50.336842 -24.702118
v -7.207343 50.508732 -22.880314
v 2.593314 51.463123 -24.810501
v 7.271603 51.398090 -23.068462
v 1.269518 51.335960 -24.911381
v 8.198297 51.449188 -22.224638
v 3.633109 51.250603 -24.049030
v 6.070612 51.125374 -23.234026
v 1.902953 51.131828 -25.089890
v 1.890652 51.702438 -24.824501
v 7.892138 51.260525 -22.856785
v 7.703597 51.737400 -22.536953
v 3.195996 51.655479 -24.313438
v 3.226277 51.102089 -24.611370
v 6.583114 51.473701 -23.099297
v 6.750931 50.999733 -23.409489
v 5.536740 51.431770 -22.757122
v 5.731391 50.725426 -23.246647
v 3.750056 51.391033 -23.420822
v 3.731737 50.722260 -23.908318
v 8.227173 51.667458 -21.462490
v 8.477413 50.944077 -22.037985
v 0.915780 51.572540 -24.405277
v 0.888517 50.751991 -24.928019
v 7.986839 50.893005 -22.749393
v 7.381889 50.945049 -23.242647
v 2.567192 50.869514 -24.935467
v 1.723589 50.683479 -25.063555
v 7.068496 51.785591 -22.683598
v 7.617568 51.910286 -22.008682
v 1.730617 51.850525 -24.410511
v 2.531507 51.859535 -24.434578
v 3.182991 51.761707 -23.871239
v 3.198414 50.687767 -24.539200
v 6.604323 50.696369 -23.370377
v 6.283570 51.702229 -22.682293
v 2.368731 51.826168 -23.691879
v 6.762480 51.938461 -21.815289
v 2.323148 50.336842 -24.702118
v 7.207370 50.508732 -22.880302
v -1.859295 51.441631 -24.991833
v -7.836173 51.509319 -22.690737
v -3.256274 51.399693 -24.464024
v -6.638402 51.231453 -23.276646
v -5.535442 51.049576 -23.066017
v -3.866796 51.058670 -23.599785
v -8.459114 51.303371 -21.714378
v -0.751774 51.188187 -24.700043
v -7.793173 51.038368 -22.958509
v -2.039256 50.888882 -25.059540
v -7.492939 51.833801 -22.408653
v -2.023920 51.824070 -24.581625
v -3.007574 51.775967 -24.203995
v -3.038884 50.881535 -24.701674
v -6.621232 51.658043 -22.850445
v -6.895004 50.867962 -23.377300
v -3.283348 51.664978 -23.431499
v -5.893081 51.764050 -22.335150
v -3.249052 50.456680 -24.293430
v -6.247616 50.523685 -23.213318
v -7.691562 51.918449 -21.442696
v -1.436150 51.815155 -24.062840
v -1.390675 50.417141 -24.968830
v -8.115586 50.656792 -22.428314
v 1.859325 51.441631 -24.991833
v 7.836201 51.509323 -22.690727
v 3.256304 51.399693 -24.464024
v 6.638430 51.231457 -23.276636
v 5.535470 51.049576 -23.066017
v 3.866824 51.058674 -23.599785
v 8.459142 51.303371 -21.714371
v 0.751803 51.188194 -24.700043
v 7.793200 51.038368 -22.958500
v 2.039286 50.888882 -25.059540
v 7.492966 51.833801 -22.408646
v 2.023949 51.824074 -24.581625
v 3.007603 51.775970 -24.203995
v 3.038914 50.881535 -24.701674
v 6.621259 51.658051 -22.850433
v 6.895031 50.867966 -23.377293
v 3.283377 51.664982 -23.431499
v 5.893108 51.764053 -22.335150
v 3.249082 50.456688 -24.293430
v 6.247644 50.523685 -23.213306
v 7.691589 51.918449 -21.442688
v 1.436179 51.815163 -24.062840
v 1.390704 50.417141 -24.968830
v 8.115614 50.656792 -22.428305
vt 0.2981 0.0697
vt 0.3134 0.6535
vt 1.7814 0.6105
vt 1.6941 -0.0091
vt 1.4215 -0.4950
vt 0.3657 -0.5338
vt -0.5778 -0.5097
vt -0.9525 -0.0686
vt -1.0126 0.5266
vt 0.3533 0.2348
vt 0.4370 -0.2214
vt 1.4522 0.0727
vt 1.7187 0.5585
vt 0.3533 0.1415
vt 1.7187 0.1321
vt 1.7814 -0.3895
vt 0.3134 -0.3465
vt -1.0126 -0.4734
vt -0.8919 0.0382
vt -0.8919 -0.4636
vt -0.5152 -0.6825
vt 0.7949 0.0719
vt 0.9568 0.5234
vt 2.2232 0.1901
vt 1.9982 -0.2733
vt 1.7100 -0.5368
vt 0.7363 -0.3827
vt -0.0864 -0.1960
vt -0.2842 0.2483
vt -0.1724 0.7459
vt 0.1386 0.7481
vt 0.3631 0.2767
vt 1.2575 0.6104
vt 1.3338 1.1081
vt 0.1386 0.9543
vt 1.3338 0.6746
vt 1.2232 0.1901
vt -0.0432 0.5234
vt -1.1724 0.7459
vt -0.9071 1.2020
vt -0.9071 -0.0166
vt -0.4859 -0.2732
vt 0.7717 0.0263
vt 0.9610 -0.6009
vt -0.2186 -0.3895
vt -0.2813 0.1321
vt 0.7717 0.2878
vt -0.2813 0.5585
vt -0.5478 0.0727
vt 0.0388 -0.2695
vt 0.6277 -0.9648
vt 1.6685 -0.2800
vt 1.9964 0.3096
vt 0.9610 0.7322
vt 0.7849 0.6712
vt 0.0529 0.0942
vt -0.5785 0.5050
vt -0.3059 0.9909
vt -0.2186 1.6105
vt 0.9610 1.3991
vt 1.9964 1.1036
vt 1.7230 0.2312
vt 0.7186 -0.4385
vt 0.8294 0.0304
vt 0.3588 0.6256
vt 1.2910 0.7459
vt 1.6231 0.2483
vt 1.8265 -0.1960
vt 1.4083 -0.4868
vt 0.7661 -0.9592
vt -0.0145 -0.3846
vt -0.6618 0.3340
vt 0.4648 0.9709
vt 1.2649 0.9269
vt 1.5141 1.7268
vt 1.0929 1.9834
vt 0.8276 2.2910
vt 0.1035 1.3588
vt 0.9709 0.1956
vt 1.3588 -0.3744
vt 0.3382 -0.6660
vt -0.1655 0.0621
vt 0.0457 -0.1655
vt 1.1169 -0.2051
vt 0.4494 0.5999
vt 0.0075 1.2284
vt 0.8375 1.5266
vt 1.1322 0.9314
vt 0.3930 0.5999
vt 1.0475 0.9314
vt 1.4222 0.4903
vt 1.1032 0.1027
vt 0.9879 0.1027
vt 0.4963 -0.3594
vt -0.2739 0.1717
vt -0.8910 0.8446
vt 0.4158 0.6826
vt 1.1341 0.6520
vt 1.4848 1.3175
vt 1.1081 1.5364
vt 0.6826 0.8060
vt 1.5364 1.0382
vt 1.8375 0.5266
vt 1.0075 0.2284
vt 0.1090 -0.1554
vt -0.2489 0.5093
vt -0.0001 -0.2489
vt 0.9333 -0.2275
vt 0.4100 0.5851
vt 0.3588 -0.0220
vt -0.7768 0.1901
vt -0.6662 0.6746
vt 0.4100 0.9063
vt -0.6662 1.1081
vt -0.7425 0.6104
vt -0.0671 0.2741
vt 0.7138 -0.4202
vt 1.4266 0.4237
vt 1.4266 0.5908
vt 1.4291 -0.1736
vt 0.0545 0.4382
vt -0.7086 0.1199
vt -1.2900 0.4632
vt -1.0018 0.7267
vt -0.7768 1.1901
vt 0.3588 0.9780
vt 1.4291 0.8264
vt 1.0373 0.1781
vt 0.0048 -0.2254
vt 0.8641 0.1207
vt 1.0853 -0.3299
vt -0.7312 -1.2339
vt -0.4736 -0.5917
vt 0.8641 0.1774
vt -0.4736 0.5132
vt -0.0864 0.8040
vt 0.7363 0.6173
vt 1.7100 0.4632
vt 2.2914 0.1199
vt 2.2914 0.6503
vt 3.0048 0.3361
vt 0.5744 0.9194
vt 0.8538 0.4009
vt -0.9981 0.6406
vt -0.8968 1.1027
vt -0.5778 1.4903
vt 0.3657 1.4662
vt 1.4215 1.5050
vt 2.0529 1.0942
vt 2.7186 0.5615
vt 0.6527 0.4878
vt 0.9751 -0.4599
vt 2.7138 0.5798
vt 1.9329 1.2741
vt 1.2575 1.6104
vt 0.3631 1.2767
vt -0.4859 0.7268
vt -0.7351 -0.0731
vt -0.8831 -1.2051
vt 0.5840 0.0932
vt 0.7626 -0.7068
vt 2.6277 0.0352
vt 2.0388 0.7305
vt 1.4522 1.0727
vt 0.4370 0.7786
vt -0.5152 0.3175
vt -0.8659 -0.3480
vt -1.0667 -1.2275
vt 0.7019 0.0697
vt -0.6941 -0.0091
vt -0.7814 0.6105
vt 0.6866 0.6535
vt 2.0126 0.5266
vt 1.9525 -0.0686
vt 1.5778 -0.5097
vt 0.6344 -0.5338
vt -0.4214 -0.4950
vt 0.6468 0.2348
vt -0.7187 0.5585
vt -0.4521 0.0727
vt 0.5630 -0.2214
vt 1.5152 -0.6825
vt 1.8920 -0.4636
vt 0.6468 0.1415
vt 1.8920 0.0382
vt 2.0126 -0.4734
vt 0.6866 -0.3465
vt -0.7814 -0.3895
vt -0.7187 0.1321
vt 0.2051 0.0719
vt -0.9981 -0.2733
vt -1.2232 0.1901
vt 0.0432 0.5234
vt 1.1724 0.7459
vt 1.2843 0.2483
vt 1.0864 -0.1960
vt 0.2638 -0.3827
vt -0.7099 -0.5368
vt 0.8614 0.7481
vt -0.3338 1.1081
vt -0.2575 0.6103
vt 0.6370 0.2767
vt 1.4859 -0.2732
vt 1.9072 -0.0166
vt 0.8614 0.9543
vt 1.9072 1.2020
vt 2.1724 0.7459
vt 1.0432 0.5234
vt -0.2232 0.1901
vt -0.3338 0.6746
vt 0.2283 0.0263
vt 1.2813 0.1321
vt 1.2186 -0.3895
vt 0.0390 -0.6009
vt 0.2283 0.2878
vt 0.0390 0.7322
vt -0.9964 0.3096
vt -0.6684 -0.2800
vt 0.3723 -0.9648
vt 0.9612 -0.2695
vt 1.5479 0.0727
vt 1.2813 0.5585
vt 0.2151 0.6713
vt 1.3059 0.9909
vt 1.5786 0.5050
vt 0.9472 0.0942
vt 0.2814 -0.4385
vt -0.7230 0.2312
vt -0.9964 1.1036
vt 0.0390 1.3991
vt 1.2186 1.6105
vt 0.8294 0.0304
vt 1.6230 0.2483
vt 1.2909 0.7459
vt 0.3588 0.6256
vt -0.6618 0.3340
vt -0.0146 -0.3846
vt 0.7661 -0.9592
vt 1.4083 -0.4868
vt 1.8265 -0.1960
vt 0.5352 0.9709
vt -0.0928 1.9834
vt -0.5141 1.7268
vt -0.2649 0.9268
vt -0.1168 -0.2051
vt 0.9543 -0.1655
vt 0.9709 0.1956
vt -0.1655 0.0621
vt 0.3382 -0.6660
vt 1.3588 -0.3744
vt 0.8966 1.3588
vt 0.1724 2.2909
vt 0.4494 0.5999
vt 1.1322 0.9314
vt 0.8375 1.5266
vt 0.0075 1.2284
vt -0.8910 0.8446
vt -0.2739 0.1717
vt 0.4963 -0.3594
vt 0.9879 0.1028
vt 0.6070 0.5999
vt -0.1032 0.1028
vt -0.4222 0.4903
vt -0.0475 0.9314
vt 0.5843 0.6826
vt -0.1080 1.5364
vt -0.4848 1.3175
vt -0.1340 0.6520
vt 0.0667 -0.2275
vt 1.0001 -0.2489
vt 0.6826 0.8060
vt -0.2489 0.5093
vt 0.1090 -0.1554
vt 1.0075 0.2284
vt 1.8375 0.5266
vt 1.5364 1.0382
vt 0.5901 0.5851
vt 1.6662 0.6746
vt 1.7768 0.1901
vt 0.6412 -0.0220
vt -0.4291 -0.1736
vt -0.4265 0.5908
vt 0.5901 0.9063
vt -0.4265 0.4237
vt 0.2862 -0.4202
vt 1.0671 0.2741
vt 1.7425 0.6103
vt 1.6662 1.1081
vt 0.9456 0.4382
vt 2.0019 0.7267
vt 2.2901 0.4632
vt 1.7086 0.1200
vt 0.9953 -0.2254
vt -0.0372 0.1781
vt -0.4291 0.8264
vt 0.6412 0.9780
vt 1.7768 1.1901
vt 0.1359 0.1207
vt 1.4737 -0.5917
vt 1.7312 -1.2339
vt -0.0853 -0.3299
vt -2.0047 0.3361
vt -1.2914 0.6502
vt 0.1359 0.1774
vt -1.2914 0.1200
vt -0.7099 0.4632
vt 0.2638 0.6173
vt 1.0864 0.8040
vt 1.4737 0.5132
vt 0.4256 0.9194
vt 1.8968 1.1028
vt 1.9982 0.6406
vt 0.1463 0.4009
vt -1.7186 0.5615
vt -1.0528 1.0942
vt -0.4214 1.5050
vt 0.6344 1.4662
vt 1.5778 1.4903
vt 0.3473 0.4877
vt -0.9329 1.2741
vt -1.7138 0.5798
vt 0.0250 -0.4599
vt 1.8832 -1.2051
vt 1.7351 -0.0732
vt 1.4859 0.7268
vt 0.6370 1.2767
vt -0.2575 1.6103
vt 0.4160 0.0932
vt -1.0388 0.7305
vt -1.6277 0.0352
vt 0.2375 -0.7068
vt 2.0667 -1.2275
vt 1.8660 -0.3480
vt 1.5152 0.3175
vt 0.5630 0.7786
vt -0.4521 1.0727
vn -0.3435 0.1834 -0.9210
vn -0.3293 0.4274 -0.8419
vn 0.0128 0.4481 -0.8939
vn -0.0532 0.1626 -0.9852
vn -0.1691 -0.1467 -0.9746
vn -0.3355 -0.1832 -0.9240
vn -0.4872 -0.1926 -0.8517
vn -0.6080 0.1025 -0.7873
vn -0.6224 0.3969 -0.6746
vn -0.2799 0.6952 -0.6620
vn -0.1577 0.9451 -0.2862
vn 0.0123 0.9420 -0.3354
vn 0.0410 0.7378 -0.6737
vn -0.5429 0.6922 -0.4755
vn -0.3188 0.9220 -0.2196
vn -0.3350 0.3746 -0.8646
vn -0.2408 0.5929 -0.7685
vn 0.0342 0.5353 -0.8440
vn -0.0505 0.2265 -0.9727
vn -0.2463 -0.2296 -0.9416
vn -0.4366 -0.1856 -0.8803
vn -0.6098 -0.1265 -0.7824
vn -0.6296 0.3293 -0.7036
vn -0.5448 0.6010 -0.5848
vn -0.1611 0.7337 -0.6600
vn -0.0289 0.9097 -0.4143
vn 0.0929 0.8647 -0.4935
vn 0.0719 0.6948 -0.7156
vn -0.4071 0.7886 -0.4608
vn -0.1748 0.9352 -0.3079
vn 0.3244 0.7870 -0.5248
vn 0.3406 0.4666 -0.8162
vn 0.1532 0.9747 -0.1627
vn 0.2117 0.9735 -0.0864
vn 0.4191 0.7776 -0.4688
vn 0.4466 0.4670 -0.7632
vn 0.2155 0.0952 -0.9718
vn -0.0542 -0.2994 -0.9526
vn 0.3267 0.1126 -0.9384
vn 0.0585 -0.2994 -0.9523
vn -0.8369 0.1548 -0.5250
vn -0.7660 0.5341 -0.3576
vn -0.6665 -0.3583 -0.6538
vn -0.7117 -0.3985 -0.5784
vn -0.8900 0.1660 -0.4245
vn -0.8142 0.5168 -0.2644
vn -0.5679 0.7939 -0.2171
vn -0.2121 0.9680 -0.1339
vn -0.6076 0.7821 -0.1383
vn -0.2637 0.9628 -0.0593
vn -0.7934 -0.0869 -0.6024
vn -0.8441 0.2982 -0.4454
vn -0.5559 -0.4129 -0.7214
vn -0.5845 -0.5087 -0.6321
vn -0.8607 -0.1139 -0.4961
vn -0.8998 0.2743 -0.3393
vn -0.6982 0.6840 -0.2110
vn -0.3367 0.9416 0.0058
vn -0.7597 0.6359 -0.1360
vn -0.3801 0.9196 0.0991
vn 0.2515 0.7049 -0.6632
vn 0.2614 0.4652 -0.8457
vn 0.1650 0.9001 -0.4032
vn 0.1863 0.9140 -0.3603
vn 0.2984 0.7244 -0.6214
vn 0.3348 0.4766 -0.8128
vn 0.1802 -0.0122 -0.9836
vn -0.1012 -0.5194 -0.8485
vn 0.2971 0.1079 -0.9487
vn 0.0455 -0.5765 -0.8158
vn -0.3760 -0.6436 -0.6666
vn -0.3179 -0.7528 -0.5763
vn -0.2995 -0.4892 -0.8191
vn -0.2651 -0.5760 -0.7732
vn 0.0367 0.9794 -0.1986
vn 0.0356 0.9910 -0.1288
vn -0.0543 0.9979 0.0357
vn -0.0355 0.9907 0.1313
vn 0.3435 0.1834 -0.9210
vn 0.0532 0.1626 -0.9852
vn -0.0128 0.4481 -0.8939
vn 0.3293 0.4274 -0.8419
vn 0.6224 0.3969 -0.6746
vn 0.6080 0.1025 -0.7873
vn 0.4872 -0.1926 -0.8517
vn 0.3355 -0.1832 -0.9240
vn 0.1691 -0.1467 -0.9746
vn 0.2799 0.6952 -0.6620
vn -0.0410 0.7378 -0.6737
vn -0.0123 0.9420 -0.3354
vn 0.1577 0.9451 -0.2862
vn 0.3188 0.9220 -0.2196
vn 0.5429 0.6922 -0.4755
vn 0.3350 0.3746 -0.8646
vn 0.0505 0.2265 -0.9727
vn -0.0342 0.5353 -0.8440
vn 0.2408 0.5929 -0.7685
vn 0.5448 0.6010 -0.5848
vn 0.6296 0.3293 -0.7036
vn 0.6098 -0.1265 -0.7824
vn 0.4366 -0.1856 -0.8803
vn 0.2463 -0.2296 -0.9416
vn 0.1611 0.7337 -0.6600
vn -0.0719 0.6948 -0.7156
vn -0.0929 0.8647 -0.4935
vn 0.0289 0.9097 -0.4143
vn 0.1748 0.9352 -0.3079
vn 0.4071 0.7886 -0.4608
vn -0.3244 0.7870 -0.5248
vn -0.3406 0.4666 -0.8162
vn -0.4466 0.4670 -0.7632
vn -0.4191 0.7776 -0.4688
vn -0.2117 0.9735 -0.0864
vn -0.1532 0.9747 -0.1628
vn -0.2155 0.0952 -0.9718
vn 0.0542 -0.2994 -0.9526
vn -0.0585 -0.2994 -0.9523
vn -0.3267 0.1126 -0.9384
vn 0.8368 0.1548 -0.5250
vn 0.7660 0.5341 -0.3576
vn 0.8142 0.5168 -0.2644
vn 0.8900 0.1660 -0.4245
vn 0.7117 -0.3985 -0.5784
vn 0.6665 -0.3583 -0.6538
vn 0.5679 0.7939 -0.2171
vn 0.2121 0.9680 -0.1339
vn 0.2637 0.9628 -0.0593
vn 0.6076 0.7821 -0.1383
vn 0.7934 -0.0869 -0.6024
vn 0.8441 0.2982 -0.4454
vn 0.8998 0.2743 -0.3393
vn 0.8607 -0.1139 -0.4961
vn 0.5845 -0.5087 -0.6321
vn 0.5559 -0.4129 -0.7214
vn 0.6982 0.6840 -0.2110
vn 0.3366 0.9416 0.0058
vn 0.3801 0.9196 0.0991
vn 0.7597 0.6359 -0.1360
vn -0.2515 0.7049 -0.6632
vn -0.2614 0.4652 -0.8457
vn -0.3348 0.4766 -0.8128
vn -0.2984 0.7244 -0.6214
vn -0.1863 0.9140 -0.3603
vn -0.1650 0.9001 -0.4032
vn -0.1802 -0.0122 -0.9836
vn 0.1012 -0.5194 -0.8485
vn -0.0455 -0.5765 -0.8158
vn -0.2971 0.1079 -0.9487
vn 0.3760 -0.6436 -0.6666
vn 0.3179 -0.7528 -0.5763
vn 0.2995 -0.4892 -0.8191
vn 0.2651 -0.5760 -0.7732
vn -0.0367 0.9794 -0.1986
vn -0.0356 0.9910 -0.1288
vn 0.0543 0.9979 0.0357
vn 0.0355 0.9907 0.1313
usemtl Spider_Eye
s 1
f 1/1/1 33/2/2 109/3/3 39/4/4
f 1/1/1 39/4/4 118/5/5 57/6/6
f 1/1/1 57/6/6 122/7/7 44/8/8
f 1/1/1 44/8/8 111/9/9 33/2/2
f 2/10/10 62/11/11 120/12/12 40/13/13
f 2/14/10 40/15/13 109/16/3 33/17/2
f 2/14/10 33/17/2 111/18/9 43/19/14
f 2/10/10 43/20/14 121/21/15 62/11/11
f 3/22/16 34/23/17 112/24/18 46/25/19
f 3/22/16 46/25/19 124/26/20 56/27/21
f 3/22/16 56/27/21 117/28/22 41/29/23
f 3/22/16 41/29/23 110/30/24 34/23/17
f 4/31/25 59/32/26 123/33/27 45/34/28
f 4/35/25 45/36/28 112/37/18 34/38/17
f 4/35/25 34/38/17 110/39/24 42/40/29
f 4/31/25 42/41/29 119/42/30 59/32/26
f 5/43/31 35/44/32 109/45/3 40/46/13
f 5/47/31 40/48/13 120/49/12 61/50/33
f 5/47/31 61/50/33 130/51/34 53/52/35
f 5/47/31 53/52/35 116/53/36 35/54/32
f 6/55/37 58/56/38 118/57/5 39/58/4
f 6/55/37 39/58/4 109/59/3 35/60/32
f 6/55/37 35/60/32 116/61/36 54/62/39
f 6/55/37 54/62/39 131/63/40 58/56/38
f 7/64/41 36/65/42 110/66/24 41/67/23
f 7/64/41 41/67/23 117/68/22 55/69/43
f 7/64/41 55/69/43 132/70/44 52/71/45
f 7/64/41 52/71/45 115/72/46 36/65/42
f 8/73/47 60/74/48 119/75/30 42/76/29
f 8/73/47 42/76/29 110/77/24 36/78/42
f 8/79/47 36/80/42 115/81/46 51/82/49
f 8/73/47 51/83/49 129/84/50 60/74/48
f 9/85/51 37/86/52 111/87/9 44/88/8
f 9/89/51 44/90/8 122/91/7 64/92/53
f 9/85/51 64/93/53 127/94/54 50/95/55
f 9/85/51 50/95/55 114/96/56 37/86/52
f 10/97/57 63/98/58 121/99/15 43/100/14
f 10/101/57 43/102/14 111/103/9 37/104/52
f 10/101/57 37/104/52 114/105/56 49/106/59
f 10/97/57 49/107/59 125/108/60 63/98/58
f 11/109/61 38/110/62 112/111/18 45/112/28
f 11/113/61 45/114/28 123/115/27 66/116/63
f 11/113/61 66/116/63 126/117/64 47/118/65
f 11/109/61 47/119/65 113/120/66 38/110/62
f 12/121/67 65/122/68 124/123/20 46/124/19
f 12/121/67 46/124/19 112/125/18 38/126/62
f 12/121/67 38/126/62 113/127/66 48/128/69
f 12/121/67 48/128/69 128/129/70 65/122/68
f 13/130/71 70/131/72 132/132/44 55/133/43
f 13/134/71 55/135/43 117/136/22 56/137/21
f 13/134/71 56/137/21 124/138/20 65/139/68
f 13/130/71 65/140/68 128/141/70 70/131/72
f 14/142/73 69/143/74 127/144/54 64/145/53
f 14/142/73 64/145/53 122/146/7 57/147/6
f 14/142/73 57/147/6 118/148/5 58/149/38
f 14/142/73 58/149/38 131/150/40 69/143/74
f 15/151/75 68/152/76 126/153/64 66/154/63
f 15/151/75 66/154/63 123/155/27 59/156/26
f 15/151/75 59/156/26 119/157/30 60/158/48
f 15/151/75 60/158/48 129/159/50 68/152/76
f 16/160/77 67/161/78 130/162/34 61/163/33
f 16/160/77 61/163/33 120/164/12 62/165/11
f 16/160/77 62/165/11 121/166/15 63/167/58
f 16/160/77 63/167/58 125/168/60 67/161/78
f 17/169/79 77/170/80 133/171/81 71/172/82
f 17/169/79 71/172/82 135/173/83 82/174/84
f 17/169/79 82/174/84 146/175/85 95/176/86
f 17/169/79 95/176/86 142/177/87 77/170/80
f 18/178/88 78/179/89 144/180/90 100/181/91
f 18/178/88 100/181/91 145/182/92 81/183/93
f 18/184/88 81/185/93 135/186/83 71/187/82
f 18/184/88 71/187/82 133/188/81 78/189/89
f 19/190/94 84/191/95 136/192/96 72/193/97
f 19/190/94 72/193/97 134/194/98 79/195/99
f 19/190/94 79/195/99 141/196/100 94/197/101
f 19/190/94 94/197/101 148/198/102 84/191/95
f 20/199/103 83/200/104 147/201/105 97/202/106
f 20/199/103 97/202/106 143/203/107 80/204/108
f 20/205/103 80/206/108 134/207/98 72/208/97
f 20/205/103 72/208/97 136/209/96 83/210/104
f 21/211/109 78/212/89 133/213/81 73/214/110
f 21/215/109 73/216/110 140/217/111 91/218/112
f 21/215/109 91/218/112 154/219/113 99/220/114
f 21/215/109 99/220/114 144/221/90 78/222/89
f 22/223/115 77/224/80 142/225/87 96/226/116
f 22/223/115 96/226/116 155/227/117 92/228/118
f 22/223/115 92/228/118 140/229/111 73/230/110
f 22/223/115 73/230/110 133/231/81 77/224/80
f 23/232/119 79/233/99 134/234/98 74/235/120
f 23/232/119 74/235/120 139/236/121 90/237/122
f 23/232/119 90/237/122 156/238/123 93/239/124
f 23/232/119 93/239/124 141/240/100 79/233/99
f 24/241/125 80/242/108 143/243/107 98/244/126
f 24/241/125 98/244/126 153/245/127 89/246/128
f 24/247/125 89/248/128 139/249/121 74/250/120
f 24/241/125 74/251/120 134/252/98 80/242/108
f 25/253/129 82/254/84 135/255/83 75/256/130
f 25/253/129 75/256/130 138/257/131 88/258/132
f 25/253/129 88/258/132 151/259/133 102/260/134
f 25/261/129 102/262/134 146/263/85 82/264/84
f 26/265/135 81/266/93 145/267/92 101/268/136
f 26/265/135 101/268/136 149/269/137 87/270/138
f 26/271/135 87/272/138 138/273/131 75/274/130
f 26/271/135 75/274/130 135/275/83 81/276/93
f 27/277/139 83/278/104 136/279/96 76/280/140
f 27/277/139 76/280/140 137/281/141 85/282/142
f 27/283/139 85/284/142 150/285/143 104/286/144
f 27/283/139 104/286/144 147/287/105 83/288/104
f 28/289/145 84/290/95 148/291/102 103/292/146
f 28/289/145 103/292/146 152/293/147 86/294/148
f 28/289/145 86/294/148 137/295/141 76/296/140
f 28/289/145 76/296/140 136/297/96 84/290/95
f 29/298/149 93/299/124 156/300/123 108/301/150
f 29/298/149 108/301/150 152/302/147 103/303/146
f 29/304/149 103/305/146 148/306/102 94/307/101
f 29/304/149 94/307/101 141/308/100 93/309/124
f 30/310/151 102/311/134 151/312/133 107/313/152
f 30/310/151 107/313/152 155/314/117 96/315/116
f 30/310/151 96/315/116 142/316/87 95/317/86
f 30/310/151 95/317/86 146/318/85 102/311/134
f 31/319/153 104/320/144 150/321/143 106/322/154
f 31/319/153 106/322/154 153/323/127 98/324/126
f 31/319/153 98/324/126 143/325/107 97/326/106
f 31/319/153 97/326/106 147/327/105 104/320/144
f 32/328/155 99/329/114 154/330/113 105/331/156
f 32/328/155 105/331/156 149/332/137 101/333/136
f 32/328/155 101/333/136 145/334/92 100/335/91
f 32/328/155 100/335/91 144/336/90 99/329/114
